<svg width="91" height="48" viewBox="0 0 91 48" fill="none" xmlns="http://www.w3.org/2000/svg">
<path d="M1.85996 41.697V22.303L14.0825 16V48L1.85996 41.697Z" fill="white"/>
<path d="M15.7393 32V15.2L0 6.54545L11.5974 0L26.5083 8V26.4L15.7393 32Z" fill="white"/>
<path d="M33.5942 13.605H31.3903V12.2152H33.5942C33.9348 12.2152 34.2121 12.1597 34.4259 12.0488C34.6398 11.934 34.7962 11.7756 34.8952 11.5737C34.9942 11.3718 35.0437 11.1441 35.0437 10.8907C35.0437 10.6333 34.9942 10.3937 34.8952 10.172C34.7962 9.95027 34.6398 9.77209 34.4259 9.63746C34.2121 9.50283 33.9348 9.43552 33.5942 9.43552H32.0081V16.6875H30.226V8.03977H33.5942C34.2715 8.03977 34.8517 8.16251 35.3348 8.40801C35.822 8.64954 36.1942 8.98413 36.4517 9.41176C36.7091 9.8394 36.8378 10.3284 36.8378 10.8788C36.8378 11.4371 36.7091 11.9202 36.4517 12.328C36.1942 12.7358 35.822 13.0506 35.3348 13.2724C34.8517 13.4941 34.2715 13.605 33.5942 13.605Z" fill="white"/>
<path d="M37.8242 8.03977H41.0499C41.7113 8.03977 42.2796 8.13876 42.7548 8.33674C43.234 8.53471 43.6023 8.82772 43.8598 9.21576C44.1172 9.6038 44.2459 10.0809 44.2459 10.6472C44.2459 11.1104 44.1667 11.5084 44.0083 11.841C43.8538 12.1696 43.634 12.4448 43.3489 12.6665C43.0677 12.8843 42.737 13.0585 42.3568 13.1892L41.7925 13.4862H38.9885L38.9766 12.0964H41.0618C41.3746 12.0964 41.634 12.0409 41.84 11.9301C42.0459 11.8192 42.2004 11.6648 42.3033 11.4668C42.4103 11.2688 42.4637 11.0392 42.4637 10.7778C42.4637 10.5006 42.4123 10.2611 42.3093 10.0592C42.2063 9.85722 42.0499 9.70279 41.84 9.59588C41.6301 9.48898 41.3667 9.43552 41.0499 9.43552H39.6063V16.6875H37.8242V8.03977ZM42.6598 16.6875L40.6875 12.8328L42.5707 12.821L44.5667 16.6044V16.6875H42.6598Z" fill="white"/>
<path d="M52.4798 12.1617V12.5715C52.4798 13.2288 52.3906 13.8188 52.2124 14.3414C52.0342 14.8641 51.7827 15.3096 51.458 15.6778C51.1332 16.0421 50.7451 16.3212 50.2936 16.5153C49.8461 16.7093 49.3491 16.8063 48.8026 16.8063C48.26 16.8063 47.763 16.7093 47.3115 16.5153C46.864 16.3212 46.4758 16.0421 46.1471 15.6778C45.8184 15.3096 45.563 14.8641 45.3808 14.3414C45.2026 13.8188 45.1135 13.2288 45.1135 12.5715V12.1617C45.1135 11.5004 45.2026 10.9105 45.3808 10.3918C45.559 9.8691 45.8105 9.42364 46.1352 9.0554C46.464 8.68716 46.8521 8.40603 47.2996 8.21201C47.7511 8.01799 48.2481 7.92098 48.7907 7.92098C49.3372 7.92098 49.8342 8.01799 50.2818 8.21201C50.7332 8.40603 51.1214 8.68716 51.4461 9.0554C51.7748 9.42364 52.0283 9.8691 52.2065 10.3918C52.3887 10.9105 52.4798 11.5004 52.4798 12.1617ZM50.6798 12.5715V12.1498C50.6798 11.6905 50.6382 11.2866 50.555 10.9382C50.4718 10.5897 50.3491 10.2967 50.1867 10.0592C50.0243 9.82158 49.8263 9.6434 49.5926 9.52461C49.359 9.40186 49.0917 9.34049 48.7907 9.34049C48.4897 9.34049 48.2224 9.40186 47.9887 9.52461C47.759 9.6434 47.563 9.82158 47.4006 10.0592C47.2422 10.2967 47.1214 10.5897 47.0382 10.9382C46.955 11.2866 46.9135 11.6905 46.9135 12.1498V12.5715C46.9135 13.0269 46.955 13.4307 47.0382 13.7831C47.1214 14.1316 47.2441 14.4266 47.4065 14.6681C47.5689 14.9057 47.7669 15.0859 48.0006 15.2086C48.2342 15.3313 48.5016 15.3927 48.8026 15.3927C49.1035 15.3927 49.3709 15.3313 49.6045 15.2086C49.8382 15.0859 50.0342 14.9057 50.1926 14.6681C50.3511 14.4266 50.4718 14.1316 50.555 13.7831C50.6382 13.4307 50.6798 13.0269 50.6798 12.5715Z" fill="white"/>
<path d="M56.175 16.6875H54.2919L54.3037 15.2977H56.175C56.6423 15.2977 57.0364 15.1928 57.3572 14.9829C57.678 14.7691 57.9196 14.4583 58.0819 14.0504C58.2483 13.6426 58.3314 13.1496 58.3314 12.5715V12.1498C58.3314 11.7063 58.2839 11.3163 58.1889 10.9798C58.0978 10.6432 57.9612 10.3601 57.779 10.1304C57.5968 9.90077 57.373 9.72853 57.1077 9.6137C56.8423 9.49491 56.5374 9.43552 56.1928 9.43552H54.2562V8.03977H56.1928C56.7711 8.03977 57.2998 8.13876 57.779 8.33674C58.2621 8.53075 58.68 8.80991 59.0324 9.17419C59.3849 9.53847 59.6562 9.97402 59.8463 10.4809C60.0403 10.9837 60.1374 11.544 60.1374 12.1617V12.5715C60.1374 13.1853 60.0403 13.7455 59.8463 14.2524C59.6562 14.7592 59.3849 15.1947 59.0324 15.559C58.6839 15.9193 58.2661 16.1985 57.779 16.3965C57.2958 16.5905 56.7612 16.6875 56.175 16.6875ZM55.3018 8.03977V16.6875H53.5196V8.03977H55.3018Z" fill="white"/>
<path d="M65.9653 8.03977H67.7415V13.7535C67.7415 14.4187 67.599 14.9789 67.3138 15.4343C67.0326 15.8896 66.6425 16.2322 66.1435 16.4618C65.6485 16.6915 65.0782 16.8063 64.4326 16.8063C63.7871 16.8063 63.2128 16.6915 62.7099 16.4618C62.2109 16.2322 61.8188 15.8896 61.5336 15.4343C61.2525 14.9789 61.1119 14.4187 61.1119 13.7535V8.03977H62.894V13.7535C62.894 14.1415 62.9554 14.4583 63.0782 14.7038C63.201 14.9492 63.3772 15.1294 63.6069 15.2442C63.8406 15.3591 64.1158 15.4165 64.4326 15.4165C64.7574 15.4165 65.0326 15.3591 65.2584 15.2442C65.4881 15.1294 65.6623 14.9492 65.7811 14.7038C65.9039 14.4583 65.9653 14.1415 65.9653 13.7535V8.03977Z" fill="white"/>
<path d="M73.9794 13.8188H75.7556C75.7199 14.4008 75.5595 14.9176 75.2744 15.369C74.9932 15.8204 74.5991 16.1728 74.0922 16.4262C73.5893 16.6796 72.9833 16.8063 72.2744 16.8063C71.72 16.8063 71.2229 16.7113 70.7833 16.5212C70.3437 16.3272 69.9675 16.05 69.6546 15.6897C69.3457 15.3294 69.1101 14.8938 68.9477 14.383C68.7853 13.8722 68.7041 13.3001 68.7041 12.6665V12.0667C68.7041 11.4331 68.7873 10.861 68.9536 10.3502C69.1239 9.83544 69.3655 9.3979 69.6784 9.03758C69.9952 8.67726 70.3734 8.40009 70.813 8.20607C71.2526 8.01205 71.7437 7.91504 72.2863 7.91504C73.0071 7.91504 73.615 8.04571 74.11 8.30704C74.609 8.56837 74.9952 8.92869 75.2685 9.38801C75.5457 9.84732 75.712 10.37 75.7675 10.956H73.9853C73.9655 10.6076 73.8962 10.3126 73.7774 10.071C73.6586 9.82554 73.4784 9.64142 73.2368 9.51867C72.9992 9.39197 72.6823 9.32861 72.2863 9.32861C71.9893 9.32861 71.7299 9.38405 71.5081 9.49491C71.2863 9.60578 71.1002 9.77407 70.9497 9.99976C70.7992 10.2255 70.6863 10.5105 70.6111 10.855C70.5398 11.1956 70.5041 11.5955 70.5041 12.0548V12.6665C70.5041 13.114 70.5378 13.508 70.6051 13.8485C70.6724 14.185 70.7754 14.4701 70.914 14.7038C71.0566 14.9334 71.2388 15.1076 71.4606 15.2264C71.6863 15.3412 71.9576 15.3987 72.2744 15.3987C72.6467 15.3987 72.9536 15.3393 73.1952 15.2205C73.4368 15.1017 73.6209 14.9255 73.7477 14.6919C73.8784 14.4583 73.9556 14.1672 73.9794 13.8188Z" fill="white"/>
<path d="M80.3716 8.03977V16.6875H78.5954V8.03977H80.3716ZM83.033 8.03977V9.43552H75.9756V8.03977H83.033Z" fill="white"/>
<path d="M32.0081 17.7576V26.4053H30.226V17.7576H32.0081ZM35.4536 21.4519V22.8417H31.521V21.4519H35.4536ZM35.8695 17.7576V19.1533H31.521V17.7576H35.8695Z" fill="white"/>
<path d="M42.4637 25.0155V26.4053H37.8598V25.0155H42.4637ZM38.442 17.7576V26.4053H36.6598V17.7576H38.442ZM41.8637 21.2796V22.6338H37.8598V21.2796H41.8637ZM42.4578 17.7576V19.1533H37.8598V17.7576H42.4578Z" fill="white"/>
<path d="M49.0639 25.0155V26.4053H44.46V25.0155H49.0639ZM45.0422 17.7576V26.4053H43.26V17.7576H45.0422ZM48.4639 21.2796V22.6338H44.46V21.2796H48.4639ZM49.058 17.7576V19.1533H44.46V17.7576H49.058Z" fill="white"/>
<path d="M52.5156 26.4053H50.6325L50.6444 25.0155H52.5156C52.983 25.0155 53.377 24.9106 53.6978 24.7007C54.0186 24.4869 54.2602 24.1761 54.4226 23.7682C54.5889 23.3604 54.6721 22.8674 54.6721 22.2893V21.8676C54.6721 21.4241 54.6245 21.0341 54.5295 20.6976C54.4384 20.361 54.3018 20.0779 54.1196 19.8482C53.9374 19.6186 53.7136 19.4463 53.4483 19.3315C53.183 19.2127 52.878 19.1533 52.5335 19.1533H50.5968V17.7576H52.5335C53.1117 17.7576 53.6404 17.8565 54.1196 18.0545C54.6028 18.2485 55.0206 18.5277 55.373 18.892C55.7255 19.2563 55.9968 19.6918 56.1869 20.1986C56.381 20.7015 56.478 21.2618 56.478 21.8795V22.2893C56.478 22.903 56.381 23.4633 56.1869 23.9702C55.9968 24.477 55.7255 24.9125 55.373 25.2768C55.0245 25.6371 54.6067 25.9163 54.1196 26.1143C53.6364 26.3083 53.1018 26.4053 52.5156 26.4053ZM51.6424 17.7576V26.4053H49.8602V17.7576H51.6424Z" fill="white"/>
<path d="M62.0982 17.7576V26.4053H60.3161V17.7576H62.0982ZM65.5438 21.4519V22.8417H61.6111V21.4519H65.5438ZM65.9596 17.7576V19.1533H61.6111V17.7576H65.9596Z" fill="white"/>
<path d="M68.645 17.7576V26.4053H66.8687V17.7576H68.645Z" fill="white"/>
<path d="M71.6452 17.7576L73.2729 20.7748L74.9006 17.7576H76.9382L74.4254 22.0458L77.0036 26.4053H74.9481L73.2729 23.3287L71.5977 26.4053H69.5303L72.1145 22.0458L69.5957 17.7576H71.6452Z" fill="white"/>
<path d="M83.4612 25.0155V26.4053H78.8573V25.0155H83.4612ZM79.4394 17.7576V26.4053H77.6573V17.7576H79.4394ZM82.8612 21.2796V22.6338H78.8573V21.2796H82.8612ZM83.4553 17.7576V19.1533H78.8573V17.7576H83.4553Z" fill="white"/>
<path d="M84.2575 17.7576H87.4832C88.1446 17.7576 88.7129 17.8565 89.1881 18.0545C89.6673 18.2525 90.0356 18.5455 90.2931 18.9336C90.5505 19.3216 90.6792 19.7987 90.6792 20.3649C90.6792 20.8282 90.6 21.2262 90.4416 21.5588C90.2871 21.8874 90.0673 22.1626 89.7822 22.3843C89.501 22.6021 89.1703 22.7763 88.7901 22.907L88.2258 23.204H85.4218L85.4099 21.8142H87.4951C87.8079 21.8142 88.0673 21.7587 88.2733 21.6479C88.4792 21.537 88.6337 21.3826 88.7366 21.1846C88.8436 20.9866 88.897 20.7569 88.897 20.4956C88.897 20.2184 88.8456 19.9789 88.7426 19.7769C88.6396 19.575 88.4832 19.4206 88.2733 19.3137C88.0634 19.2068 87.8 19.1533 87.4832 19.1533H86.0396V26.4053H84.2575V17.7576ZM89.0931 26.4053L87.1208 22.5506L89.004 22.5388L91 26.3221V26.4053H89.0931Z" fill="white"/>
</svg>
